<!--?xml version="1.0" standalone="no"?-->
              <svg id="sw-js-blob-svg" viewBox="0 0 100 100" xmlns="http://www.w3.org/2000/svg" version="1.1">
                    <defs> 
                        <linearGradient id="sw-gradient" x1="0" x2="1" y1="1" y2="0">
                            <stop id="stop1" stop-color="rgba(225.818, 231.602, 237.995, 1)" offset="0%"></stop>
                            <stop id="stop2" stop-color="rgba(242.549, 242.549, 242.549, 1)" offset="100%"></stop>
                        </linearGradient>
                    </defs>
                <path fill="url(#sw-gradient)" d="M17.8,-19.5C25.9,-14.4,37.3,-11.5,35.4,-8.3C33.5,-5.1,18.4,-1.6,12.4,5.7C6.5,13.1,9.7,24.4,6.3,31.8C3,39.3,-7,43,-10,37.5C-12.9,32.1,-8.8,17.4,-13,8.3C-17.3,-0.7,-29.9,-4.1,-30.1,-5.7C-30.3,-7.3,-18,-7.1,-10.9,-12.4C-3.9,-17.8,-1.9,-28.7,1.4,-30.4C4.8,-32.1,9.6,-24.7,17.8,-19.5Z" width="100%" height="100%" transform="translate(50 50)" stroke-width="0" style="transition: 0.3s;" stroke="url(#sw-gradient)"></path>
              </svg>